<?xml version="1.0" encoding="iso-8859-1"?>
<!-- Uploaded to: SVG Repo, www.svgrepo.com, Generator: SVG Repo Mixer Tools -->
<svg fill="#000000" height="800px" width="800px" version="1.1" id="Layer_1" xmlns="http://www.w3.org/2000/svg" xmlns:xlink="http://www.w3.org/1999/xlink" 
	 viewBox="0 0 490.65 490.65" xml:space="preserve">
<g>
	<g>
		<g>
			<path d="M415.988,383.755h-36.075l-18.368-36.779c-3.627-7.232-15.467-7.232-19.093,0l-18.368,36.779h-36.075
				c-4.309,0-8.192,2.603-9.856,6.592s-0.747,8.576,2.304,11.627l27.968,27.968l-9.536,47.723
				c-0.875,4.331,1.024,8.768,4.779,11.115c3.733,2.368,8.512,2.176,12.075-0.491l36.267-27.2l36.267,27.2
				c1.899,1.408,4.16,2.133,6.4,2.133c1.984,0,3.947-0.533,5.653-1.643c3.755-2.347,5.653-6.784,4.779-11.115l-9.536-47.723
				l27.968-27.968c3.029-3.051,3.947-7.637,2.304-11.627C424.202,386.358,420.298,383.755,415.988,383.755z M376.479,418.87
				c-2.517,2.539-3.627,6.144-2.923,9.643l5.184,25.963l-20.331-15.253c-1.899-1.429-4.16-2.133-6.4-2.133s-4.501,0.704-6.4,2.133
				l-20.331,15.253l5.184-25.963c0.704-3.499-0.405-7.125-2.923-9.643l-13.781-13.781h16.917c4.032,0,7.723-2.283,9.536-5.888
				l11.797-23.573l11.797,23.573c1.813,3.605,5.504,5.888,9.536,5.888h16.917L376.479,418.87z"/>
			<path d="M110.943,296.289c1.899,1.408,4.16,2.133,6.4,2.133c1.984,0,3.947-0.533,5.653-1.643
				c3.755-2.347,5.653-6.784,4.779-11.115l-9.536-47.723l27.968-27.968c3.029-3.051,3.947-7.637,2.304-11.627
				c-1.643-3.989-5.547-6.592-9.856-6.592H102.58l-18.368-36.779c-3.627-7.232-15.467-7.232-19.093,0l-18.368,36.779H10.676
				c-4.309,0-8.192,2.603-9.856,6.592c-1.664,3.989-0.747,8.576,2.304,11.627l27.968,27.968l-9.536,47.723
				c-0.875,4.331,1.024,8.768,4.779,11.115c3.733,2.368,8.512,2.176,12.075-0.491l36.267-27.2L110.943,296.289z M47.946,262.475
				l5.184-25.963c0.704-3.499-0.405-7.125-2.923-9.643l-13.781-13.781h16.917c4.032,0,7.723-2.283,9.536-5.888l11.797-23.573
				l11.797,23.573c1.813,3.605,5.504,5.888,9.536,5.888h16.917L99.145,226.87c-2.517,2.539-3.627,6.144-2.923,9.643l5.184,25.963
				l-20.331-15.253c-1.899-1.429-4.16-2.133-6.4-2.133s-4.501,0.704-6.4,2.133L47.946,262.475z"/>
			<path d="M489.844,198.347c-1.643-3.989-5.547-6.592-9.856-6.592h-36.075l-18.368-36.779c-3.627-7.232-15.467-7.232-19.093,0
				l-18.368,36.779h-36.075c-4.309,0-8.192,2.603-9.856,6.592c-1.664,3.989-0.747,8.576,2.304,11.627l27.968,27.968l-9.536,47.723
				c-0.875,4.331,1.024,8.768,4.779,11.115c3.733,2.368,8.533,2.176,12.075-0.491l36.267-27.2l36.267,27.2
				c1.899,1.408,4.16,2.133,6.4,2.133c1.984,0,3.947-0.533,5.653-1.643c3.755-2.347,5.653-6.784,4.779-11.115l-9.536-47.723
				l27.968-27.968C490.57,206.923,491.487,202.337,489.844,198.347z M440.479,226.87c-2.517,2.539-3.627,6.144-2.923,9.643
				l5.184,25.963l-20.331-15.253c-1.899-1.429-4.16-2.133-6.4-2.133s-4.501,0.704-6.4,2.133l-20.331,15.253l5.184-25.963
				c0.704-3.499-0.405-7.125-2.923-9.643l-13.781-13.781h16.917c4.032,0,7.723-2.283,9.536-5.888l11.797-23.573l11.797,23.573
				c1.813,3.605,5.504,5.888,9.536,5.888h16.917L440.479,226.87z"/>
			<path d="M202.655,383.755H166.58l-18.368-36.779c-3.627-7.232-15.467-7.232-19.093,0l-18.368,36.779H74.676
				c-4.309,0-8.192,2.603-9.856,6.592s-0.747,8.576,2.304,11.627l27.968,27.968l-9.536,47.723
				c-0.875,4.331,1.024,8.768,4.779,11.115c3.733,2.368,8.533,2.176,12.075-0.491l36.267-27.2l36.267,27.2
				c1.899,1.408,4.16,2.133,6.4,2.133c1.984,0,3.947-0.533,5.653-1.643c3.755-2.347,5.653-6.784,4.779-11.115l-9.536-47.723
				l27.968-27.968c3.029-3.051,3.947-7.637,2.304-11.627C210.868,386.358,206.964,383.755,202.655,383.755z M163.145,418.87
				c-2.517,2.539-3.627,6.144-2.923,9.643l5.184,25.963l-20.331-15.253c-1.899-1.429-4.16-2.133-6.4-2.133s-4.501,0.704-6.4,2.133
				l-20.331,15.253l5.184-25.963c0.704-3.499-0.405-7.125-2.923-9.643l-13.781-13.781h16.917c4.032,0,7.723-2.283,9.536-5.888
				l11.797-23.573l11.797,23.573c1.813,3.605,5.504,5.888,9.536,5.888h16.917L163.145,418.87z"/>
			<path d="M288.009,149.089c1.984,0,3.947-0.533,5.653-1.643c3.755-2.347,5.653-6.784,4.779-11.115l-9.536-47.723l27.968-27.968
				c3.029-3.051,3.947-7.637,2.304-11.627s-5.547-6.592-9.856-6.592h-36.075L254.879,5.643c-3.627-7.232-15.467-7.232-19.093,0
				l-18.368,36.779h-36.075c-4.309,0-8.192,2.603-9.856,6.592s-0.747,8.576,2.304,11.627l27.968,27.968l-9.536,47.723
				c-0.875,4.331,1.024,8.768,4.779,11.115c3.755,2.368,8.512,2.176,12.075-0.491l36.267-27.2l36.267,27.2
				C283.508,148.363,285.77,149.089,288.009,149.089z M251.743,97.889c-1.899-1.429-4.16-2.133-6.4-2.133
				c-2.24,0-4.501,0.704-6.4,2.133l-20.331,15.253l5.184-25.963c0.704-3.499-0.405-7.125-2.923-9.643l-13.781-13.781h16.917
				c4.032,0,7.723-2.283,9.536-5.888l11.797-23.573l11.797,23.573c1.813,3.605,5.504,5.888,9.536,5.888h16.917l-13.781,13.781
				c-2.517,2.539-3.627,6.144-2.923,9.643l5.184,25.963L251.743,97.889z"/>
		</g>
	</g>
</g>
</svg>